<?xml version="1.0" encoding="UTF-8" standalone="no"?>
<!DOCTYPE svg PUBLIC "-//W3C//DTD SVG 1.1//EN"
 "http://www.w3.org/Graphics/SVG/1.1/DTD/svg11.dtd">
<!-- Generated by graphviz version 2.46.0 (20210119.1425)
 -->
<!-- Title: dependencies Pages: 1 -->
<svg width="504pt" height="284pt"
 viewBox="0.00 0.00 504.00 284.00" xmlns="http://www.w3.org/2000/svg" xmlns:xlink="http://www.w3.org/1999/xlink">
<g id="graph0" class="graph" transform="scale(1 1) rotate(0) translate(4 280)">
<title>dependencies</title>
<polygon fill="white" stroke="transparent" points="-4,4 -4,-280 500,-280 500,4 -4,4"/>
<text text-anchor="start" x="227.01" y="-42.4" font-family="sans-serif" font-weight="bold" font-size="14.00">Legend</text>
<polygon fill="#ffffb3" stroke="transparent" points="14,-10 14,-30 34,-30 34,-10 14,-10"/>
<text text-anchor="start" x="37.63" y="-15.4" font-family="sans-serif" font-size="14.00"> &#160;Declarations</text>
<polygon fill="#8dd3c7" stroke="transparent" points="127,-10 127,-30 147,-30 147,-10 127,-10"/>
<text text-anchor="start" x="150.73" y="-15.4" font-family="sans-serif" font-size="14.00"> &#160;Module</text>
<polygon fill="#80b1d3" stroke="transparent" points="213,-10 213,-30 233,-30 233,-10 213,-10"/>
<text text-anchor="start" x="236.78" y="-15.4" font-family="sans-serif" font-size="14.00"> &#160;Bootstrap</text>
<polygon fill="#fdb462" stroke="transparent" points="310,-10 310,-30 330,-30 330,-10 310,-10"/>
<text text-anchor="start" x="333.67" y="-15.4" font-family="sans-serif" font-size="14.00"> &#160;Providers</text>
<polygon fill="#fb8072" stroke="transparent" points="406,-10 406,-30 426,-30 426,-10 406,-10"/>
<text text-anchor="start" x="429.73" y="-15.4" font-family="sans-serif" font-size="14.00"> &#160;Exports</text>
<g id="clust1" class="cluster">
<title>cluster_SharedModule</title>
<polygon fill="none" stroke="black" stroke-dasharray="1,5" points="110,-70 110,-268 386,-268 386,-70 110,-70"/>
</g>
<g id="clust6" class="cluster">
<title>cluster_SharedModule_exports</title>
<polygon fill="none" stroke="black" points="118,-208 118,-260 378,-260 378,-208 118,-208"/>
</g>
<g id="clust2" class="cluster">
<title>cluster_SharedModule_declarations</title>
<polygon fill="none" stroke="black" points="122,-78 122,-130 374,-130 374,-78 122,-78"/>
</g>
<!-- ButtonDirective -->
<g id="node1" class="node">
<title>ButtonDirective</title>
<polygon fill="#ffffb3" stroke="black" points="366.2,-122 259.8,-122 259.8,-86 366.2,-86 366.2,-122"/>
<text text-anchor="middle" x="313" y="-99.8" font-family="Times,serif" font-size="14.00">ButtonDirective</text>
</g>
<!-- SharedModule -->
<g id="node3" class="node">
<title>SharedModule</title>
<polygon fill="#8dd3c7" stroke="black" points="236.42,-187 233.42,-191 212.42,-191 209.42,-187 137.58,-187 137.58,-151 236.42,-151 236.42,-187"/>
<text text-anchor="middle" x="187" y="-164.8" font-family="Times,serif" font-size="14.00">SharedModule</text>
</g>
<!-- ButtonDirective&#45;&gt;SharedModule -->
<g id="edge1" class="edge">
<title>ButtonDirective&#45;&gt;SharedModule</title>
<path fill="none" stroke="black" d="M330.78,-122.02C330.78,-139.37 330.78,-163 330.78,-163 330.78,-163 246.48,-163 246.48,-163"/>
<polygon fill="black" stroke="black" points="246.48,-159.5 236.48,-163 246.48,-166.5 246.48,-159.5"/>
</g>
<!-- MyCurrencyPipe -->
<g id="node2" class="node">
<title>MyCurrencyPipe</title>
<polygon fill="#ffffb3" stroke="black" points="242.42,-122 129.58,-122 129.58,-86 242.42,-86 242.42,-122"/>
<text text-anchor="middle" x="186" y="-99.8" font-family="Times,serif" font-size="14.00">MyCurrencyPipe</text>
</g>
<!-- MyCurrencyPipe&#45;&gt;SharedModule -->
<g id="edge2" class="edge">
<title>MyCurrencyPipe&#45;&gt;SharedModule</title>
<path fill="none" stroke="black" d="M187,-122.11C187,-122.11 187,-140.99 187,-140.99"/>
<polygon fill="black" stroke="black" points="183.5,-140.99 187,-150.99 190.5,-140.99 183.5,-140.99"/>
</g>
<!-- ButtonDirective  -->
<g id="node4" class="node">
<title>ButtonDirective </title>
<polygon fill="#fb8072" stroke="black" points="369.7,-252 260.3,-252 260.3,-216 369.7,-216 369.7,-252"/>
<text text-anchor="middle" x="315" y="-229.8" font-family="Times,serif" font-size="14.00">ButtonDirective </text>
</g>
<!-- SharedModule&#45;&gt;ButtonDirective  -->
<g id="edge3" class="edge">
<title>SharedModule&#45;&gt;ButtonDirective </title>
<path fill="none" stroke="black" stroke-dasharray="5,2" d="M236.47,-175C265.08,-175 295.47,-175 295.47,-175 295.47,-175 295.47,-205.98 295.47,-205.98"/>
<polygon fill="black" stroke="black" points="291.97,-205.98 295.47,-215.98 298.97,-205.98 291.97,-205.98"/>
</g>
<!-- MyCurrencyPipe  -->
<g id="node5" class="node">
<title>MyCurrencyPipe </title>
<polygon fill="#fb8072" stroke="black" points="241.92,-252 126.08,-252 126.08,-216 241.92,-216 241.92,-252"/>
<text text-anchor="middle" x="184" y="-229.8" font-family="Times,serif" font-size="14.00">MyCurrencyPipe </text>
</g>
<!-- SharedModule&#45;&gt;MyCurrencyPipe  -->
<g id="edge4" class="edge">
<title>SharedModule&#45;&gt;MyCurrencyPipe </title>
<path fill="none" stroke="black" stroke-dasharray="5,2" d="M187,-187.11C187,-187.11 187,-205.99 187,-205.99"/>
<polygon fill="black" stroke="black" points="183.5,-205.99 187,-215.99 190.5,-205.99 183.5,-205.99"/>
</g>
</g>
</svg>
