<?xml version="1.0" encoding="UTF-8" standalone="no"?>
<!DOCTYPE svg PUBLIC "-//W3C//DTD SVG 1.1//EN"
 "http://www.w3.org/Graphics/SVG/1.1/DTD/svg11.dtd">
<!-- Generated by graphviz version 2.46.0 (20210119.1425)
 -->
<!-- Title: dependencies Pages: 1 -->
<svg width="1105pt" height="211pt"
 viewBox="0.00 0.00 1105.00 211.00" xmlns="http://www.w3.org/2000/svg" xmlns:xlink="http://www.w3.org/1999/xlink">
<g id="graph0" class="graph" transform="scale(1 1) rotate(0) translate(4 207)">
<title>dependencies</title>
<polygon fill="white" stroke="transparent" points="-4,4 -4,-207 1101,-207 1101,4 -4,4"/>
<text text-anchor="start" x="527.51" y="-42.4" font-family="sans-serif" font-weight="bold" font-size="14.00">Legend</text>
<polygon fill="#ffffb3" stroke="transparent" points="314.5,-10 314.5,-30 334.5,-30 334.5,-10 314.5,-10"/>
<text text-anchor="start" x="338.13" y="-15.4" font-family="sans-serif" font-size="14.00"> &#160;Declarations</text>
<polygon fill="#8dd3c7" stroke="transparent" points="427.5,-10 427.5,-30 447.5,-30 447.5,-10 427.5,-10"/>
<text text-anchor="start" x="451.23" y="-15.4" font-family="sans-serif" font-size="14.00"> &#160;Module</text>
<polygon fill="#80b1d3" stroke="transparent" points="513.5,-10 513.5,-30 533.5,-30 533.5,-10 513.5,-10"/>
<text text-anchor="start" x="537.28" y="-15.4" font-family="sans-serif" font-size="14.00"> &#160;Bootstrap</text>
<polygon fill="#fdb462" stroke="transparent" points="610.5,-10 610.5,-30 630.5,-30 630.5,-10 610.5,-10"/>
<text text-anchor="start" x="634.17" y="-15.4" font-family="sans-serif" font-size="14.00"> &#160;Providers</text>
<polygon fill="#fb8072" stroke="transparent" points="706.5,-10 706.5,-30 726.5,-30 726.5,-10 706.5,-10"/>
<text text-anchor="start" x="730.23" y="-15.4" font-family="sans-serif" font-size="14.00"> &#160;Exports</text>
<g id="clust1" class="cluster">
<title>cluster_WholesaleModule</title>
<polygon fill="none" stroke="black" stroke-dasharray="1,5" points="8,-70 8,-195 1089,-195 1089,-70 8,-70"/>
</g>
<g id="clust7" class="cluster">
<title>cluster_WholesaleModule_imports</title>
<polygon fill="none" stroke="black" points="785,-78 785,-130 1081,-130 1081,-78 785,-78"/>
</g>
<g id="clust2" class="cluster">
<title>cluster_WholesaleModule_declarations</title>
<polygon fill="none" stroke="black" points="16,-78 16,-130 777,-130 777,-78 16,-78"/>
</g>
<!-- OrderFormComponent -->
<g id="node1" class="node">
<title>OrderFormComponent</title>
<polygon fill="#ffffb3" stroke="black" points="769.31,-122 624.69,-122 624.69,-86 769.31,-86 769.31,-122"/>
<text text-anchor="middle" x="697" y="-99.8" font-family="Times,serif" font-size="14.00">OrderFormComponent</text>
</g>
<!-- WholesaleModule -->
<g id="node5" class="node">
<title>WholesaleModule</title>
<polygon fill="#8dd3c7" stroke="black" points="668.13,-187 665.13,-191 644.13,-191 641.13,-187 549.87,-187 549.87,-151 668.13,-151 668.13,-187"/>
<text text-anchor="middle" x="609" y="-164.8" font-family="Times,serif" font-size="14.00">WholesaleModule</text>
</g>
<!-- OrderFormComponent&#45;&gt;WholesaleModule -->
<g id="edge1" class="edge">
<title>OrderFormComponent&#45;&gt;WholesaleModule</title>
<path fill="none" stroke="black" d="M646.58,-122.11C646.58,-122.11 646.58,-140.99 646.58,-140.99"/>
<polygon fill="black" stroke="black" points="643.08,-140.99 646.58,-150.99 650.08,-140.99 643.08,-140.99"/>
</g>
<!-- OrderFormPageComponent -->
<g id="node2" class="node">
<title>OrderFormPageComponent</title>
<polygon fill="#ffffb3" stroke="black" points="606.52,-122 435.48,-122 435.48,-86 606.52,-86 606.52,-122"/>
<text text-anchor="middle" x="521" y="-99.8" font-family="Times,serif" font-size="14.00">OrderFormPageComponent</text>
</g>
<!-- OrderFormPageComponent&#45;&gt;WholesaleModule -->
<g id="edge2" class="edge">
<title>OrderFormPageComponent&#45;&gt;WholesaleModule</title>
<path fill="none" stroke="black" d="M578.22,-122.11C578.22,-122.11 578.22,-140.99 578.22,-140.99"/>
<polygon fill="black" stroke="black" points="574.72,-140.99 578.22,-150.99 581.72,-140.99 574.72,-140.99"/>
</g>
<!-- OrderFormProductComponent -->
<g id="node3" class="node">
<title>OrderFormProductComponent</title>
<polygon fill="#ffffb3" stroke="black" points="416.86,-122 229.14,-122 229.14,-86 416.86,-86 416.86,-122"/>
<text text-anchor="middle" x="323" y="-99.8" font-family="Times,serif" font-size="14.00">OrderFormProductComponent</text>
</g>
<!-- OrderFormProductComponent&#45;&gt;WholesaleModule -->
<g id="edge3" class="edge">
<title>OrderFormProductComponent&#45;&gt;WholesaleModule</title>
<path fill="none" stroke="black" d="M323,-122.02C323,-139.37 323,-163 323,-163 323,-163 539.74,-163 539.74,-163"/>
<polygon fill="black" stroke="black" points="539.74,-166.5 549.74,-163 539.74,-159.5 539.74,-166.5"/>
</g>
<!-- WholesaleLandingComponent -->
<g id="node4" class="node">
<title>WholesaleLandingComponent</title>
<polygon fill="#ffffb3" stroke="black" points="211.57,-122 24.43,-122 24.43,-86 211.57,-86 211.57,-122"/>
<text text-anchor="middle" x="118" y="-99.8" font-family="Times,serif" font-size="14.00">WholesaleLandingComponent</text>
</g>
<!-- WholesaleLandingComponent&#45;&gt;WholesaleModule -->
<g id="edge4" class="edge">
<title>WholesaleLandingComponent&#45;&gt;WholesaleModule</title>
<path fill="none" stroke="black" d="M118,-122.28C118,-143.32 118,-175 118,-175 118,-175 539.77,-175 539.77,-175"/>
<polygon fill="black" stroke="black" points="539.77,-178.5 549.77,-175 539.77,-171.5 539.77,-178.5"/>
</g>
<!-- SharedModule -->
<g id="node6" class="node">
<title>SharedModule</title>
<polygon fill="#8dd3c7" stroke="black" points="1073.42,-122 1070.42,-126 1049.42,-126 1046.42,-122 974.58,-122 974.58,-86 1073.42,-86 1073.42,-122"/>
<text text-anchor="middle" x="1024" y="-99.8" font-family="Times,serif" font-size="14.00">SharedModule</text>
</g>
<!-- SharedModule&#45;&gt;WholesaleModule -->
<g id="edge5" class="edge">
<title>SharedModule&#45;&gt;WholesaleModule</title>
<path fill="none" stroke="black" d="M1024,-122.28C1024,-143.32 1024,-175 1024,-175 1024,-175 678.46,-175 678.46,-175"/>
<polygon fill="black" stroke="black" points="678.46,-171.5 668.46,-175 678.46,-178.5 678.46,-171.5"/>
</g>
<!-- WholesaleRoutingModule -->
<g id="node7" class="node">
<title>WholesaleRoutingModule</title>
<polygon fill="#8dd3c7" stroke="black" points="956.75,-122 953.75,-126 932.75,-126 929.75,-122 793.25,-122 793.25,-86 956.75,-86 956.75,-122"/>
<text text-anchor="middle" x="875" y="-99.8" font-family="Times,serif" font-size="14.00">WholesaleRoutingModule</text>
</g>
<!-- WholesaleRoutingModule&#45;&gt;WholesaleModule -->
<g id="edge6" class="edge">
<title>WholesaleRoutingModule&#45;&gt;WholesaleModule</title>
<path fill="none" stroke="black" d="M875,-122.02C875,-139.37 875,-163 875,-163 875,-163 678.36,-163 678.36,-163"/>
<polygon fill="black" stroke="black" points="678.36,-159.5 668.36,-163 678.36,-166.5 678.36,-159.5"/>
</g>
</g>
</svg>
