<?xml version="1.0" encoding="UTF-8" standalone="no"?>
<!DOCTYPE svg PUBLIC "-//W3C//DTD SVG 1.1//EN"
 "http://www.w3.org/Graphics/SVG/1.1/DTD/svg11.dtd">
<!-- Generated by graphviz version 2.46.0 (20210119.1425)
 -->
<!-- Title: dependencies Pages: 1 -->
<svg width="1086pt" height="284pt"
 viewBox="0.00 0.00 1086.00 284.00" xmlns="http://www.w3.org/2000/svg" xmlns:xlink="http://www.w3.org/1999/xlink">
<g id="graph0" class="graph" transform="scale(1 1) rotate(0) translate(4 280)">
<title>dependencies</title>
<polygon fill="white" stroke="transparent" points="-4,4 -4,-280 1082,-280 1082,4 -4,4"/>
<text text-anchor="start" x="518.01" y="-42.4" font-family="sans-serif" font-weight="bold" font-size="14.00">Legend</text>
<polygon fill="#ffffb3" stroke="transparent" points="305,-10 305,-30 325,-30 325,-10 305,-10"/>
<text text-anchor="start" x="328.63" y="-15.4" font-family="sans-serif" font-size="14.00"> &#160;Declarations</text>
<polygon fill="#8dd3c7" stroke="transparent" points="418,-10 418,-30 438,-30 438,-10 418,-10"/>
<text text-anchor="start" x="441.73" y="-15.4" font-family="sans-serif" font-size="14.00"> &#160;Module</text>
<polygon fill="#80b1d3" stroke="transparent" points="504,-10 504,-30 524,-30 524,-10 504,-10"/>
<text text-anchor="start" x="527.78" y="-15.4" font-family="sans-serif" font-size="14.00"> &#160;Bootstrap</text>
<polygon fill="#fdb462" stroke="transparent" points="601,-10 601,-30 621,-30 621,-10 601,-10"/>
<text text-anchor="start" x="624.67" y="-15.4" font-family="sans-serif" font-size="14.00"> &#160;Providers</text>
<polygon fill="#fb8072" stroke="transparent" points="697,-10 697,-30 717,-30 717,-10 697,-10"/>
<text text-anchor="start" x="720.73" y="-15.4" font-family="sans-serif" font-size="14.00"> &#160;Exports</text>
<g id="clust1" class="cluster">
<title>cluster_HomeModule</title>
<polygon fill="none" stroke="black" stroke-dasharray="1,5" points="8,-70 8,-268 1070,-268 1070,-70 8,-70"/>
</g>
<g id="clust2" class="cluster">
<title>cluster_HomeModule_declarations</title>
<polygon fill="none" stroke="black" points="138,-78 138,-130 1062,-130 1062,-78 138,-78"/>
</g>
<g id="clust10" class="cluster">
<title>cluster_HomeModule_exports</title>
<polygon fill="none" stroke="black" points="451,-208 451,-260 587,-260 587,-208 451,-208"/>
</g>
<g id="clust9" class="cluster">
<title>cluster_HomeModule_imports</title>
<polygon fill="none" stroke="black" points="16,-78 16,-130 130,-130 130,-78 16,-78"/>
</g>
<!-- CommunityComponent -->
<g id="node1" class="node">
<title>CommunityComponent</title>
<polygon fill="#ffffb3" stroke="black" points="1054.23,-122 905.77,-122 905.77,-86 1054.23,-86 1054.23,-122"/>
<text text-anchor="middle" x="980" y="-99.8" font-family="Times,serif" font-size="14.00">CommunityComponent</text>
</g>
<!-- HomeModule -->
<g id="node7" class="node">
<title>HomeModule</title>
<polygon fill="#8dd3c7" stroke="black" points="565.76,-187 562.76,-191 541.76,-191 538.76,-187 472.24,-187 472.24,-151 565.76,-151 565.76,-187"/>
<text text-anchor="middle" x="519" y="-164.8" font-family="Times,serif" font-size="14.00">HomeModule</text>
</g>
<!-- CommunityComponent&#45;&gt;HomeModule -->
<g id="edge1" class="edge">
<title>CommunityComponent&#45;&gt;HomeModule</title>
<path fill="none" stroke="black" d="M980,-122.29C980,-144.21 980,-178 980,-178 980,-178 576.17,-178 576.17,-178"/>
<polygon fill="black" stroke="black" points="576.17,-174.5 566.17,-178 576.17,-181.5 576.17,-174.5"/>
</g>
<!-- HomeComponent -->
<g id="node2" class="node">
<title>HomeComponent</title>
<polygon fill="#ffffb3" stroke="black" points="887.55,-122 772.45,-122 772.45,-86 887.55,-86 887.55,-122"/>
<text text-anchor="middle" x="830" y="-99.8" font-family="Times,serif" font-size="14.00">HomeComponent</text>
</g>
<!-- HomeComponent&#45;&gt;HomeModule -->
<g id="edge2" class="edge">
<title>HomeComponent&#45;&gt;HomeModule</title>
<path fill="none" stroke="black" d="M830,-122.11C830,-141.34 830,-169 830,-169 830,-169 575.9,-169 575.9,-169"/>
<polygon fill="black" stroke="black" points="575.9,-165.5 565.9,-169 575.9,-172.5 575.9,-165.5"/>
</g>
<!-- LandingComponent -->
<g id="node3" class="node">
<title>LandingComponent</title>
<polygon fill="#ffffb3" stroke="black" points="753.99,-122 626.01,-122 626.01,-86 753.99,-86 753.99,-122"/>
<text text-anchor="middle" x="690" y="-99.8" font-family="Times,serif" font-size="14.00">LandingComponent</text>
</g>
<!-- LandingComponent&#45;&gt;HomeModule -->
<g id="edge3" class="edge">
<title>LandingComponent&#45;&gt;HomeModule</title>
<path fill="none" stroke="black" d="M690,-122.03C690,-138.4 690,-160 690,-160 690,-160 576.18,-160 576.18,-160"/>
<polygon fill="black" stroke="black" points="576.18,-156.5 566.18,-160 576.18,-163.5 576.18,-156.5"/>
</g>
<!-- RangesShowcaseComponent -->
<g id="node4" class="node">
<title>RangesShowcaseComponent</title>
<polygon fill="#ffffb3" stroke="black" points="608.02,-122 429.98,-122 429.98,-86 608.02,-86 608.02,-122"/>
<text text-anchor="middle" x="519" y="-99.8" font-family="Times,serif" font-size="14.00">RangesShowcaseComponent</text>
</g>
<!-- RangesShowcaseComponent&#45;&gt;HomeModule -->
<g id="edge4" class="edge">
<title>RangesShowcaseComponent&#45;&gt;HomeModule</title>
<path fill="none" stroke="black" d="M519,-122.11C519,-122.11 519,-140.99 519,-140.99"/>
<polygon fill="black" stroke="black" points="515.5,-140.99 519,-150.99 522.5,-140.99 515.5,-140.99"/>
</g>
<!-- StoryComponent -->
<g id="node5" class="node">
<title>StoryComponent</title>
<polygon fill="#ffffb3" stroke="black" points="411.67,-122 300.33,-122 300.33,-86 411.67,-86 411.67,-122"/>
<text text-anchor="middle" x="356" y="-99.8" font-family="Times,serif" font-size="14.00">StoryComponent</text>
</g>
<!-- StoryComponent&#45;&gt;HomeModule -->
<g id="edge5" class="edge">
<title>StoryComponent&#45;&gt;HomeModule</title>
<path fill="none" stroke="black" d="M356,-122.03C356,-138.4 356,-160 356,-160 356,-160 461.85,-160 461.85,-160"/>
<polygon fill="black" stroke="black" points="461.85,-163.5 471.85,-160 461.85,-156.5 461.85,-163.5"/>
</g>
<!-- SubscribeComponent -->
<g id="node6" class="node">
<title>SubscribeComponent</title>
<polygon fill="#ffffb3" stroke="black" points="282.04,-122 145.96,-122 145.96,-86 282.04,-86 282.04,-122"/>
<text text-anchor="middle" x="214" y="-99.8" font-family="Times,serif" font-size="14.00">SubscribeComponent</text>
</g>
<!-- SubscribeComponent&#45;&gt;HomeModule -->
<g id="edge6" class="edge">
<title>SubscribeComponent&#45;&gt;HomeModule</title>
<path fill="none" stroke="black" d="M214,-122.11C214,-141.34 214,-169 214,-169 214,-169 462.01,-169 462.01,-169"/>
<polygon fill="black" stroke="black" points="462.01,-172.5 472.01,-169 462.01,-165.5 462.01,-172.5"/>
</g>
<!-- HomeComponent  -->
<g id="node9" class="node">
<title>HomeComponent </title>
<polygon fill="#fb8072" stroke="black" points="578.54,-252 459.46,-252 459.46,-216 578.54,-216 578.54,-252"/>
<text text-anchor="middle" x="519" y="-229.8" font-family="Times,serif" font-size="14.00">HomeComponent </text>
</g>
<!-- HomeModule&#45;&gt;HomeComponent  -->
<g id="edge8" class="edge">
<title>HomeModule&#45;&gt;HomeComponent </title>
<path fill="none" stroke="black" stroke-dasharray="5,2" d="M519,-187.11C519,-187.11 519,-205.99 519,-205.99"/>
<polygon fill="black" stroke="black" points="515.5,-205.99 519,-215.99 522.5,-205.99 515.5,-205.99"/>
</g>
<!-- SharedModule -->
<g id="node8" class="node">
<title>SharedModule</title>
<polygon fill="#8dd3c7" stroke="black" points="122.42,-122 119.42,-126 98.42,-126 95.42,-122 23.58,-122 23.58,-86 122.42,-86 122.42,-122"/>
<text text-anchor="middle" x="73" y="-99.8" font-family="Times,serif" font-size="14.00">SharedModule</text>
</g>
<!-- SharedModule&#45;&gt;HomeModule -->
<g id="edge7" class="edge">
<title>SharedModule&#45;&gt;HomeModule</title>
<path fill="none" stroke="black" d="M73,-122.29C73,-144.21 73,-178 73,-178 73,-178 462.11,-178 462.11,-178"/>
<polygon fill="black" stroke="black" points="462.11,-181.5 472.11,-178 462.11,-174.5 462.11,-181.5"/>
</g>
</g>
</svg>
