<?xml version="1.0" encoding="UTF-8" standalone="no"?>
<!DOCTYPE svg PUBLIC "-//W3C//DTD SVG 1.1//EN"
 "http://www.w3.org/Graphics/SVG/1.1/DTD/svg11.dtd">
<!-- Generated by graphviz version 2.46.0 (20210119.1425)
 -->
<!-- Title: dependencies Pages: 1 -->
<svg width="986pt" height="284pt"
 viewBox="0.00 0.00 986.00 284.00" xmlns="http://www.w3.org/2000/svg" xmlns:xlink="http://www.w3.org/1999/xlink">
<g id="graph0" class="graph" transform="scale(1 1) rotate(0) translate(4 280)">
<title>dependencies</title>
<polygon fill="white" stroke="transparent" points="-4,4 -4,-280 982,-280 982,4 -4,4"/>
<text text-anchor="start" x="468.01" y="-42.4" font-family="sans-serif" font-weight="bold" font-size="14.00">Legend</text>
<polygon fill="#ffffb3" stroke="transparent" points="255,-10 255,-30 275,-30 275,-10 255,-10"/>
<text text-anchor="start" x="278.63" y="-15.4" font-family="sans-serif" font-size="14.00"> &#160;Declarations</text>
<polygon fill="#8dd3c7" stroke="transparent" points="368,-10 368,-30 388,-30 388,-10 368,-10"/>
<text text-anchor="start" x="391.73" y="-15.4" font-family="sans-serif" font-size="14.00"> &#160;Module</text>
<polygon fill="#80b1d3" stroke="transparent" points="454,-10 454,-30 474,-30 474,-10 454,-10"/>
<text text-anchor="start" x="477.78" y="-15.4" font-family="sans-serif" font-size="14.00"> &#160;Bootstrap</text>
<polygon fill="#fdb462" stroke="transparent" points="551,-10 551,-30 571,-30 571,-10 551,-10"/>
<text text-anchor="start" x="574.67" y="-15.4" font-family="sans-serif" font-size="14.00"> &#160;Providers</text>
<polygon fill="#fb8072" stroke="transparent" points="647,-10 647,-30 667,-30 667,-10 647,-10"/>
<text text-anchor="start" x="670.73" y="-15.4" font-family="sans-serif" font-size="14.00"> &#160;Exports</text>
<g id="clust1" class="cluster">
<title>cluster_AppModule</title>
<polygon fill="none" stroke="black" stroke-dasharray="1,5" points="8,-70 8,-268 970,-268 970,-70 8,-70"/>
</g>
<g id="clust2" class="cluster">
<title>cluster_AppModule_declarations</title>
<polygon fill="none" stroke="black" points="396,-78 396,-130 962,-130 962,-78 396,-78"/>
</g>
<g id="clust7" class="cluster">
<title>cluster_AppModule_imports</title>
<polygon fill="none" stroke="black" points="16,-78 16,-130 388,-130 388,-78 16,-78"/>
</g>
<g id="clust9" class="cluster">
<title>cluster_AppModule_bootstrap</title>
<polygon fill="none" stroke="black" points="403,-208 403,-260 527,-260 527,-208 403,-208"/>
</g>
<!-- AppComponent -->
<g id="node1" class="node">
<title>AppComponent</title>
<polygon fill="#ffffb3" stroke="black" points="953.94,-122 848.06,-122 848.06,-86 953.94,-86 953.94,-122"/>
<text text-anchor="middle" x="901" y="-99.8" font-family="Times,serif" font-size="14.00">AppComponent</text>
</g>
<!-- AppModule -->
<g id="node5" class="node">
<title>AppModule</title>
<polygon fill="#8dd3c7" stroke="black" points="506.66,-187 503.66,-191 482.66,-191 479.66,-187 423.34,-187 423.34,-151 506.66,-151 506.66,-187"/>
<text text-anchor="middle" x="465" y="-164.8" font-family="Times,serif" font-size="14.00">AppModule</text>
</g>
<!-- AppComponent&#45;&gt;AppModule -->
<g id="edge1" class="edge">
<title>AppComponent&#45;&gt;AppModule</title>
<path fill="none" stroke="black" d="M901,-122.29C901,-144.21 901,-178 901,-178 901,-178 516.81,-178 516.81,-178"/>
<polygon fill="black" stroke="black" points="516.81,-174.5 506.81,-178 516.81,-181.5 516.81,-174.5"/>
</g>
<!-- CartOverlayComponent -->
<g id="node2" class="node">
<title>CartOverlayComponent</title>
<polygon fill="#ffffb3" stroke="black" points="830.02,-122 679.98,-122 679.98,-86 830.02,-86 830.02,-122"/>
<text text-anchor="middle" x="755" y="-99.8" font-family="Times,serif" font-size="14.00">CartOverlayComponent</text>
</g>
<!-- CartOverlayComponent&#45;&gt;AppModule -->
<g id="edge2" class="edge">
<title>CartOverlayComponent&#45;&gt;AppModule</title>
<path fill="none" stroke="black" d="M755,-122.11C755,-141.34 755,-169 755,-169 755,-169 516.86,-169 516.86,-169"/>
<polygon fill="black" stroke="black" points="516.86,-165.5 506.86,-169 516.86,-172.5 516.86,-165.5"/>
</g>
<!-- FooterComponent -->
<g id="node3" class="node">
<title>FooterComponent</title>
<polygon fill="#ffffb3" stroke="black" points="661.88,-122 544.12,-122 544.12,-86 661.88,-86 661.88,-122"/>
<text text-anchor="middle" x="603" y="-99.8" font-family="Times,serif" font-size="14.00">FooterComponent</text>
</g>
<!-- FooterComponent&#45;&gt;AppModule -->
<g id="edge3" class="edge">
<title>FooterComponent&#45;&gt;AppModule</title>
<path fill="none" stroke="black" d="M603,-122.03C603,-138.4 603,-160 603,-160 603,-160 516.78,-160 516.78,-160"/>
<polygon fill="black" stroke="black" points="516.78,-156.5 506.78,-160 516.78,-163.5 516.78,-156.5"/>
</g>
<!-- HeaderComponent -->
<g id="node4" class="node">
<title>HeaderComponent</title>
<polygon fill="#ffffb3" stroke="black" points="525.74,-122 404.26,-122 404.26,-86 525.74,-86 525.74,-122"/>
<text text-anchor="middle" x="465" y="-99.8" font-family="Times,serif" font-size="14.00">HeaderComponent</text>
</g>
<!-- HeaderComponent&#45;&gt;AppModule -->
<g id="edge4" class="edge">
<title>HeaderComponent&#45;&gt;AppModule</title>
<path fill="none" stroke="black" d="M465,-122.11C465,-122.11 465,-140.99 465,-140.99"/>
<polygon fill="black" stroke="black" points="461.5,-140.99 465,-150.99 468.5,-140.99 461.5,-140.99"/>
</g>
<!-- AppComponent  -->
<g id="node9" class="node">
<title>AppComponent </title>
<polygon fill="#80b1d3" stroke="black" points="519.44,-252 410.56,-252 410.56,-216 519.44,-216 519.44,-252"/>
<text text-anchor="middle" x="465" y="-229.8" font-family="Times,serif" font-size="14.00">AppComponent </text>
</g>
<!-- AppModule&#45;&gt;AppComponent  -->
<g id="edge8" class="edge">
<title>AppModule&#45;&gt;AppComponent </title>
<path fill="none" stroke="black" stroke-dasharray="1,5" d="M465,-187.11C465,-187.11 465,-205.99 465,-205.99"/>
<polygon fill="black" stroke="black" points="461.5,-205.99 465,-215.99 468.5,-205.99 461.5,-205.99"/>
</g>
<!-- AppRoutingModule -->
<g id="node6" class="node">
<title>AppRoutingModule</title>
<polygon fill="#8dd3c7" stroke="black" points="380.27,-122 377.27,-126 356.27,-126 353.27,-122 251.73,-122 251.73,-86 380.27,-86 380.27,-122"/>
<text text-anchor="middle" x="316" y="-99.8" font-family="Times,serif" font-size="14.00">AppRoutingModule</text>
</g>
<!-- AppRoutingModule&#45;&gt;AppModule -->
<g id="edge5" class="edge">
<title>AppRoutingModule&#45;&gt;AppModule</title>
<path fill="none" stroke="black" d="M316,-122.03C316,-138.4 316,-160 316,-160 316,-160 413.1,-160 413.1,-160"/>
<polygon fill="black" stroke="black" points="413.1,-163.5 423.1,-160 413.1,-156.5 413.1,-163.5"/>
</g>
<!-- HomeModule -->
<g id="node7" class="node">
<title>HomeModule</title>
<polygon fill="#8dd3c7" stroke="black" points="233.76,-122 230.76,-126 209.76,-126 206.76,-122 140.24,-122 140.24,-86 233.76,-86 233.76,-122"/>
<text text-anchor="middle" x="187" y="-99.8" font-family="Times,serif" font-size="14.00">HomeModule</text>
</g>
<!-- HomeModule&#45;&gt;AppModule -->
<g id="edge6" class="edge">
<title>HomeModule&#45;&gt;AppModule</title>
<path fill="none" stroke="black" d="M187,-122.11C187,-141.34 187,-169 187,-169 187,-169 413.08,-169 413.08,-169"/>
<polygon fill="black" stroke="black" points="413.08,-172.5 423.08,-169 413.08,-165.5 413.08,-172.5"/>
</g>
<!-- SharedModule -->
<g id="node8" class="node">
<title>SharedModule</title>
<polygon fill="#8dd3c7" stroke="black" points="122.42,-122 119.42,-126 98.42,-126 95.42,-122 23.58,-122 23.58,-86 122.42,-86 122.42,-122"/>
<text text-anchor="middle" x="73" y="-99.8" font-family="Times,serif" font-size="14.00">SharedModule</text>
</g>
<!-- SharedModule&#45;&gt;AppModule -->
<g id="edge7" class="edge">
<title>SharedModule&#45;&gt;AppModule</title>
<path fill="none" stroke="black" d="M73,-122.29C73,-144.21 73,-178 73,-178 73,-178 413.05,-178 413.05,-178"/>
<polygon fill="black" stroke="black" points="413.05,-181.5 423.05,-178 413.05,-174.5 413.05,-181.5"/>
</g>
</g>
</svg>
